<?xml version="1.0" encoding="UTF-8"?>
<svg version="1.1" xmlns="http://www.w3.org/2000/svg" width="128" height="128">
<path d="M0 0 C42.24 0 84.48 0 128 0 C128 42.24 128 84.48 128 128 C85.76 128 43.52 128 0 128 C0 85.76 0 43.52 0 0 Z " fill="#0155D8" transform="translate(0,0)"/>
<path d="M0 0 C1.03125 0.515625 2.0625 1.03125 3.125 1.5625 C8.11809019 5.79577212 11.92763108 11.78289324 14 18 C14.75546071 27.50801259 15.01642672 36.04076882 9 44 C7.09567332 45.96145648 5.24184388 47.3917207 3 49 C1.98319689 49.98290968 0.97261781 50.97334787 0 52 C0.81726563 52.11214844 1.63453125 52.22429687 2.4765625 52.33984375 C6.56913955 53.10663479 10.41821424 54.28530966 14.375 55.5625 C15.47908203 55.91344727 15.47908203 55.91344727 16.60546875 56.27148438 C18.40481238 56.8440028 20.20257277 57.42149314 22 58 C22 62.80639455 21.28472404 63.63105227 18 67 C12.07479242 71.12427442 6.24461559 73.11455624 -1 72 C-6.78242499 69.79968608 -11.15351758 66.87718594 -16 63 C-16 68.94 -16 74.88 -16 81 C-26.27528828 79.53210167 -34.47069391 74.10421409 -41 66 C-48.50360688 55.59644844 -51.34153397 45.51936248 -51.5 32.8125 C-51.51853027 31.88598633 -51.53706055 30.95947266 -51.55615234 30.00488281 C-51.46379412 19.8599659 -47.34776927 12.09310114 -40.8125 4.4375 C-29.64177598 -5.24379415 -12.91384442 -7.93199496 0 0 Z " fill="#FAFCFC" transform="translate(78,26)"/>
<path d="M0 0 C3.57472471 1.59721743 6.02169417 3.76648395 8.4375 6.8125 C9.75827506 11.94884747 9.72370937 15.60618935 7.3125 20.25 C1.9618165 26.61297498 1.9618165 26.61297498 -2.296875 27.453125 C-7.06705693 27.77113713 -10.22912969 27.36548496 -14 24.3125 C-17.66110616 20.62555073 -18.81099342 17.73256027 -19.375 12.5625 C-18.85273025 7.60093735 -16.8549013 4.68263184 -13.19140625 1.359375 C-9.11281882 -1.17065784 -4.61932599 -0.70464295 0 0 Z " fill="#0758D7" transform="translate(66,40)"/>
<path d="M0 0 C3.23475448 1.61737724 4.70572021 2.47629223 7 5 C5.68 4.67 4.36 4.34 3 4 C2.67 6.31 2.34 8.62 2 11 C1.67 11 1.34 11 1 11 C0.67 7.37 0.34 3.74 0 0 Z " fill="#155FD3" transform="translate(62,89)"/>
<path d="M0 0 C0 1.98 0 3.96 0 6 C-2.97 5.505 -2.97 5.505 -6 5 C-5 2 -5 2 -3 0.8125 C-1 0 -1 0 0 0 Z " fill="#1761CF" transform="translate(84,73)"/>
<path d="M0 0 C0.33 0.66 0.66 1.32 1 2 C0.23883449 3.15227823 -0.53432693 4.2966386 -1.3125 5.4375 C-1.74175781 6.07558594 -2.17101562 6.71367188 -2.61328125 7.37109375 C-4 9 -4 9 -7 10 C-7.66 9.34 -8.32 8.68 -9 8 C-8.51789063 7.67386719 -8.03578125 7.34773438 -7.5390625 7.01171875 C-6.90742187 6.57472656 -6.27578125 6.13773437 -5.625 5.6875 C-4.99851562 5.25824219 -4.37203125 4.82898438 -3.7265625 4.38671875 C-1.73621155 2.93079661 -1.73621155 2.93079661 0 0 Z " fill="#2166D0" transform="translate(100,87)"/>
<path d="M0 0 C3 3 3 3 3.375 5.5625 C3.25125 6.366875 3.1275 7.17125 3 8 C2.01 8.66 1.02 9.32 0 10 C0 6.7 0 3.4 0 0 Z " fill="#2E71D7" transform="translate(92,48)"/>
</svg>
